<svg version="1.1" xmlns="http://www.w3.org/2000/svg" xmlns:xlink="http://www.w3.org/1999/xlink" width="20px" height="20px" viewBox="0,0,256,256"><g fill="#fcfffa" fill-rule="evenodd" stroke="none" stroke-width="1" stroke-linecap="butt" stroke-linejoin="miter" stroke-miterlimit="10" stroke-dasharray="" stroke-dashoffset="0" font-family="none" font-weight="none" font-size="none" text-anchor="none" style="mix-blend-mode: normal"><g transform="scale(12.8,12.8)"><g id="Page-1"><g transform="translate(-212,-422)" id="Core"><g transform="translate(212,422)" id="shopping-cart"><path d="M6,16c-1.1,0 -2,0.9 -2,2c0,1.1 0.9,2 2,2c1.1,0 2,-0.9 2,-2c0,-1.1 -0.9,-2 -2,-2zM0,0v2h2l3.6,7.6l-1.4,2.4c-0.1,0.3 -0.2,0.7 -0.2,1c0,1.1 0.9,2 2,2h12v-2h-11.6c-0.1,0 -0.2,-0.1 -0.2,-0.2v-0.1l0.9,-1.7h7.4c0.8,0 1.4,-0.4 1.7,-1l3.6,-6.5c0.2,-0.2 0.2,-0.3 0.2,-0.5c0,-0.6 -0.4,-1 -1,-1h-14.8l-0.9,-2h-3.3zM16,16c-1.1,0 -2,0.9 -2,2c0,1.1 0.9,2 2,2c1.1,0 2,-0.9 2,-2c0,-1.1 -0.9,-2 -2,-2z" id="Shape"></path></g></g></g></g></g></svg>