<svg width="122" height="89" viewBox="0 0 122 89" fill="none" xmlns="http://www.w3.org/2000/svg">
<path d="M95.2603 88.5753H26.7397V59.6033C54.626 36.5965 85.6993 49.6619 95.2603 59.6033V88.5753Z" fill="#90E0EF"/>
<path d="M100.274 64.3426C100.274 56.3206 92.4747 51.5298 88.5752 50.1371C102.614 46.7946 116.708 56.5435 122 61.8357V88.5754H100.274V64.3426Z" fill="#90E0EF"/>
<path d="M21.7262 64.3426C21.7262 56.3206 29.5253 51.5298 33.4248 50.1371C19.3864 46.7946 5.29239 56.5435 0.000148773 61.8357V88.5754H21.7262V64.3426Z" fill="#90E0EF"/>
<circle cx="60.9998" cy="20.8904" r="20.8904" fill="#90E0EF"/>
<path d="M76.877 40.1095C90.9153 30.0821 86.6258 13.6483 82.7263 6.68487C105.455 3.3424 109.466 19.2191 108.63 27.5753C104.619 49.6356 85.7902 45.1232 76.877 40.1095Z" fill="#90E0EF"/>
<path d="M45.2236 40.1095C31.1853 30.0821 35.4748 13.6483 39.3743 6.68487C16.6456 3.3424 12.6346 19.2191 13.4702 27.5753C17.4812 49.6356 36.3104 45.1232 45.2236 40.1095Z" fill="#90E0EF"/>
</svg>
